<?xml version="1.0" encoding="UTF-8"?>
<svg inkscapeVersion="0.92.2 2405546, 2018-03-11" sodipodiDocname="Javascript-shield.svg" version="1.1" width="800px" height="800px" viewBox="0 0 397.32 559.5" xmlns="http://www.w3.org/2000/svg" xmlnsCc="http://creativecommons.org/ns#" xmlnsDc="http://purl.org/dc/elements/1.1/" xmlnsRdf="http://www.w3.org/1999/02/22-rdf-syntax-ns#" xmlnsSvg="http://www.w3.org/2000/svg">
<metadata>
<rdfRDF>
<ccWork rdfAbout="">
<dcformat>image/svg+xml</dcformat>
<dctype rdfResource="http://purl.org/dc/dcmitype/StillImage"/>
<dcTitle/>
</ccWork>
</rdfRDF>
</metadata>
<sodipodiNamedview bordercolor="#666666" borderopacity="1" fit-margin-bottom="0" fit-margin-left="0" fit-margin-right="0" fit-margin-top="0" gridtolerance="10" guidetolerance="10" inkscapeCurrent-layer="svg64" inkscapeCx="364.99449" inkscapeCy="300.83113" inkscapePageopacity="0" inkscapePageshadow="2" inkscapeWindow-height="1016" inkscapeWindow-maximized="1" inkscapeWindow-width="1920" inkscapeWindow-x="0" inkscapeWindow-y="27" inkscapeZoom="1.0628712" objecttolerance="10" pagecolor="#ffffff" showgrid="false"/>
<path d="m1.3337 109.33 0.0625 5c0.03444 2.75 8.0016 93.801 17.705 202.33l17.643 197.33 79.295 22.201c43.612 12.211 80.195 22.263 81.295 22.34 1.1 0.0771 38.166-9.8739 82.369-22.113 70.87-19.623 80.438-22.579 80.945-25.008 0.707-3.3842 35.413-394.9 35.377-399.09l-0.0254-3h-197.33z" fill="#fff" stroke-width="1.3333" inkscapeConnector-curvature="0"/>
<path d="m116.67 537.53-80-22.362-1.0454-5.9172c-0.92931-5.2598-35.621-392.73-35.621-397.85 0-1.8529 20.256-2.0633 198.67-2.0633 188.32 0 198.67 0.12147 198.65 2.3333-0.0628 9.5534-35.972 402.16-36.854 402.94-1.1151 0.98746-155.96 44.126-161.13 44.89-1.4667 0.21676-38.667-9.6686-82.667-21.968zm132.44-79.013c26.889-7.416 49.277-13.866 49.751-14.333 0.47423-0.46731 3.6207-32.35 6.9922-70.85 3.3715-38.5 6.4702-72.55 6.8861-75.667l0.75622-5.6667h-116.16v49.333h62.717l-0.6238 3c-0.34309 1.65-1.6767 15.829-2.9636 31.51-1.3636 16.615-2.9803 29.15-3.8749 30.045-0.84427 0.84427-13.622 4.7567-28.395 8.6943l-26.86 7.1593v25.129c0 17.152 0.45852 25.129 1.4444 25.129 0.7944 0 23.444-6.0677 50.333-13.484zm63.621-197.52c-0.88136-6.5334-8.7323-94.163-8.7323-97.467 0-2.0069-4.6157-2.1997-52.667-2.1997h-52.667v51.587l23.667 0.91218c13.017 0.50169 26.715 1.2652 30.442 1.6967l6.7751 0.78459 1.6447 20.176c0.9046 11.097 1.9825 22.426 2.3953 25.176l0.75055 5h49.156z" fill="#eaebec" stroke-width="1.3333" inkscapeConnector-curvature="0" sodipodiNodetypes="sccsssccsscsccccccccsscscssscsscccsccsscccc"/>
<path d="m116.04 536.2-79.295-22.201-17.643-197.33c-9.7035-108.53-17.671-199.58-17.705-202.33l-0.0626-5h394.67l0.0256 3c0.0356 4.1888-34.671 395.7-35.378 399.09-0.50745 2.4291-10.075 5.3848-80.945 25.008-44.203 12.239-81.27 22.19-82.37 22.113-1.1-0.0772-37.683-10.131-81.295-22.341zm133.13-76.742c27.411-7.6208 50.227-14.485 50.702-15.255 0.47542-0.76927 3.75-34.28 7.2768-74.468 3.5268-40.188 6.7012-74.12 7.0542-75.403 0.60635-2.2046-4.0577-2.3333-84.514-2.3333h-85.156l3.6256-38.333c1.9941-21.083 3.6737-38.388 3.7324-38.455 0.0587-0.0667 12.557-0.46537 27.773-0.8859 24.951-0.68958 76.405 1.3009 78.126 3.0222 0.64308 0.64308 4.8739 42.15 4.8739 47.816 0 2.7938 0.37699 2.8352 25.836 2.8352h25.836l-0.60884-5.6667c-0.33487-3.1167-2.5234-27.267-4.8634-53.667l-4.2546-48-99.639-0.34182c-79.269-0.27194-99.642 6.5e-4 -99.65 1.3333-7e-3 0.92135-0.58701 6.7752-1.2911 13.008-1.7038 15.084-14.698 160.82-14.698 164.85v3.1524h169.57l-0.75581 5c-0.4157 2.75-1.7336 16.7-2.9288 31s-2.5577 26.369-3.0281 26.821c-1.2422 1.1925-51.119 14.517-54.23 14.487-1.444-0.0138-14.326-3.2278-28.626-7.1422l-26-7.117-0.95343-11.191c-0.52439-6.1551-1.3222-14.941-1.7728-19.524l-0.81936-8.3333h-50.454l0.0559 5c0.1044 9.3506 6.1678 72.335 7.0483 73.215 1.0183 1.0184 97.912 28.255 100.9 28.362 1.1 0.0393 24.427-6.1637 51.838-13.784z" fill="#f0be25" stroke-width="1.3333" inkscapeConnector-curvature="0" sodipodiCodetypes="ccsccccccscccccscscsccsssccscscssccccsccscsscccccccc"/>
<path d="m116.04 536.2-79.295-22.201-17.643-197.33c-9.7035-108.53-17.671-199.58-17.705-202.33l-0.0626-5h394.67l0.0256 3c0.0356 4.1888-34.671 395.7-35.378 399.09-0.50745 2.4291-10.075 5.3848-80.945 25.008-44.203 12.239-81.27 22.19-82.37 22.113-1.1-0.0772-37.683-10.131-81.295-22.341zm147.87-29.701c34.881-9.6248 64.076-18.175 64.876-19 1.2462-1.2842 31.372-331.45 31.251-342.5l-0.0402-3.6667h-161.33v18.667h-46.667c-36.439 0-46.669 0.36529-46.678 1.6667-7e-3 0.91667-0.58701 6.7667-1.2911 13-1.7038 15.084-14.698 160.82-14.698 164.85v3.1524h109.33v38.667c0 30.058-0.37107 38.661-1.6667 38.642-0.91666-0.0139-13.367-3.2278-27.667-7.1422l-26-7.117-0.95343-11.191c-0.52439-6.1551-1.3222-14.941-1.7728-19.524l-0.81936-8.3333h-50.454l0.0559 5c0.15972 14.301 6.3465 72.679 7.7975 73.576 0.8819 0.54504 24.076 7.2095 51.542 14.81l49.938 13.819v25.064c0 13.785 0.41084 25.064 0.91299 25.064 0.50213 0 29.452-7.8749 64.333-17.5zm-115.89-252.48c1.9168-20.886 3.7464-38.211 4.0657-38.5 0.31928-0.28889 10.931-0.81163 23.581-1.1616l23-0.63635v78.273h-54.131z" fill="#e4a126" stroke-width="1.3333" inkscapeConnector-curvature="0" sodipodiCodetypes="ccsccccccscccscccccccscsscccscscsscccccscsssscscccccs"/>
<path d="m126.67 62v-12.667h36v-49.333h25.333v74.667h-61.333zm73.333 2.6667v-10h16.667c9.1667 0 16.667-0.33886 16.667-0.75302s-7.5-8.8815-16.667-18.816l-16.667-18.063v-17.034h69.333v19.918l-32.549 0.74874 33.882 36.489v17.511h-70.667z" fill="#0e0e0f" stroke-width="1.3333" inkscapeConnector-curvature="0"/>
</svg>
